<svg width="340" height="91" viewBox="0 0 340 91" fill="none" xmlns="http://www.w3.org/2000/svg">
<rect width="88.5489" height="90.48" rx="4" fill="#B3002B"/>
<path d="M23.8267 31.6197V58.8586C23.7095 58.6781 23.596 58.4958 23.4825 58.3079C21.159 54.4682 20 50.1132 20 45.2391C20 40.3669 21.159 36.0101 23.4807 32.1741C23.5941 31.9862 23.7095 31.802 23.8267 31.6197Z" fill="white"/>
<path d="M49.1978 20.0727V33.2605C48.7141 33.201 48.223 33.1731 47.7188 33.1731C46.3831 33.1731 45.1516 33.3423 44.0205 33.6791V20.1173C44.96 20.041 45.9162 20.0001 46.8928 20.0001C47.676 19.9982 48.4462 20.0206 49.1978 20.0727Z" fill="white"/>
<path d="M55.5452 21.0884V36.0249C53.9454 34.7264 52.219 33.8688 50.3661 33.4577V20.1601C52.1743 20.3294 53.9007 20.6401 55.5452 21.0884Z" fill="white"/>
<path d="M68.5489 29.6533L63.0535 34.5609V24.4816C65.1594 25.8899 66.9899 27.6181 68.5489 29.6533Z" fill="white"/>
<path d="M61.887 23.7468V35.5989L58.2743 38.8266C57.7683 38.1848 57.2437 37.6006 56.7079 37.0704V21.4363C57.6511 21.7339 58.5608 22.0855 59.4444 22.4818C60.2946 22.8632 61.1057 23.2854 61.887 23.7468Z" fill="white"/>
<path d="M68.5489 60.8249C66.9899 62.8601 65.1594 64.5884 63.0535 65.9966V55.9174L68.5489 60.8249Z" fill="white"/>
<path d="M61.887 54.8793V66.7315C61.1057 67.1928 60.2946 67.6151 59.4444 67.9965C58.5608 68.3927 57.6511 68.7443 56.7079 69.042V53.4078C57.2437 52.8758 57.7683 52.2935 58.2743 51.6517L61.887 54.8793Z" fill="white"/>
<path d="M55.5452 54.4533V69.3898C53.9026 69.8382 52.1743 70.1489 50.3661 70.3181V57.0206C52.2171 56.6113 53.9454 55.7518 55.5452 54.4533Z" fill="white"/>
<path d="M49.1978 57.2196V70.4074C48.4462 70.4595 47.676 70.48 46.8947 70.48C45.9199 70.48 44.9618 70.4391 44.0223 70.3628V56.801C45.1516 57.1378 46.385 57.307 47.7207 57.307C48.223 57.307 48.7141 57.2773 49.1978 57.2196Z" fill="white"/>
<path d="M42.856 56.3787V70.24C41.0589 70.0279 39.3344 69.6633 37.6768 69.1499V51.3708C38.1531 52.353 38.767 53.2422 39.5148 54.031C40.4822 55.0542 41.5947 55.8355 42.856 56.3787Z" fill="white"/>
<path d="M42.856 20.2364V34.0976C41.5947 34.6409 40.4822 35.4259 39.5148 36.4454C38.767 37.2341 38.1531 38.1215 37.6768 39.1094V21.3302C39.3344 20.8131 41.0589 20.4503 42.856 20.2364Z" fill="white"/>
<path d="M36.5104 43.3639C36.4453 43.9648 36.4118 44.5899 36.4118 45.2391C36.4118 45.8884 36.4453 46.5153 36.5104 47.1181V68.7629C35.3365 68.3444 34.1999 67.8458 33.1023 67.2728C32.4939 66.9528 31.9024 66.6198 31.335 66.2608V24.2212C31.9042 23.8621 32.4939 23.5273 33.1023 23.2092C34.1999 22.6325 35.3365 22.1339 36.5104 21.7191V43.3639Z" fill="white"/>
<path d="M30.1685 24.9951V65.4832C28.1761 64.0861 26.4497 62.4285 24.9894 60.5161V29.9621C26.4479 28.0497 28.1761 26.3922 30.1685 24.9951Z" fill="white"/>
<path d="M150.524 61.7677V74.6059H108.549V24.1213H149.588V36.9595H125.282V42.8722H146.629V55.1316H125.282V61.7677H150.524Z" fill="#B3002B"/>
<path d="M164.654 43.2339H174.031C177.416 43.2339 180.161 45.9792 180.161 49.3636C180.161 52.748 177.416 55.4933 174.031 55.4933H164.654C161.27 55.4933 158.524 52.748 158.524 49.3636C158.524 45.9792 161.27 43.2339 164.654 43.2339Z" fill="#B3002B"/>
<path d="M205.312 79.0567L204.657 83.5504" stroke="#B3002B" stroke-width="3" stroke-miterlimit="10"/>
<path d="M208.17 83.4379L207.515 87.9317" stroke="#B3002B" stroke-width="3" stroke-miterlimit="10"/>
<path d="M210.047 78.305L211.607 82.5013" stroke="#B3002B" stroke-width="3" stroke-miterlimit="10"/>
<path d="M210.835 86.2837L212.395 90.48" stroke="#B3002B" stroke-width="3" stroke-miterlimit="10"/>
<path d="M214.677 85.3833L216.241 89.5796" stroke="#B3002B" stroke-width="3" stroke-miterlimit="10"/>
<path d="M215.172 76.5083L217.933 79.8002" stroke="#B3002B" stroke-width="3" stroke-miterlimit="10"/>
<path d="M215.859 82.1275L218.625 85.4195" stroke="#B3002B" stroke-width="3" stroke-miterlimit="10"/>
<path d="M228.581 24.3636V35.8191H222.126V37.4953H216.37L216.358 37.7847C217.535 38.1022 218.002 38.8016 218.002 38.8016L217.885 42.9135C217.885 44.4007 208.492 46.3582 208.492 46.3582C208.801 47.5681 215.614 48.1951 217.101 49.4452C218.589 50.7033 217.728 54.0233 217.728 54.0233C216.828 55.9848 207.358 57.3515 207.358 57.3515C207.201 58.1353 215.381 62.5969 215.381 62.5969C215.023 66.0335 207.748 67.4122 207.748 67.4122L211.776 73.4374L205.787 74.8482C203.282 70.2258 203.717 69.2933 203.717 69.2933C204.227 67.2997 207.905 62.01 207.905 62.01C201.783 61.1097 199.838 59.3371 199.219 58.2197C198.957 57.7534 199.15 57.1545 199.633 56.9133C202.261 55.5869 208.214 51.7564 208.214 51.7564C200.465 50.0722 198.744 48.4684 198.744 48.4684L198.781 43.9304C199.255 42.5638 208.291 40.952 208.291 40.952C198.121 38.4921 198.953 37.6802 198.953 37.6802C198.953 37.6199 198.965 37.5555 198.99 37.4953H194.624V35.8191H188.161V24.3636H228.581Z" fill="#B3002B"/>
<path d="M278.556 61.7677V74.6059H236.581V24.1213H277.62V36.9595H253.314V42.8722H274.662V55.1316H253.314V61.7677H278.556Z" fill="#B3002B"/>
<path d="M307.112 57.8729L303.289 62.1295V74.6059H286.556V24.1213H303.289V42.4421L319.878 24.1213H338.416L318.222 46.337L339.421 74.6059H319.733L307.112 57.8729Z" fill="#B3002B"/>
</svg>
